Patient4_TMGait_0pt4_02_left_05_EMG.mot
version=1
nRows=40
nColumns=33
inDegrees=no
endheader
time	1LAddLong	2LGlutMax	3LGlutMed	4LIliopsoas	5LSemiMemb	6LBicFemLong	7LRecFem	8LVastMed	9LVastLat	10LGasMed	11LTibAnt	12lTibPost	13LPeroneusLong	14LSol	15LExtDigLong	16LFlexDigLong	17RAddLong	18RGlutMax	19RGlutMed	20RIliopsoas	21RSemiMemb	22RBicFemLong	23RRecFem	24RVastMed	25RVastLat	26RGasMed	27RTibAnt	28RTibPost	29RPeroneusLong	30RSol	31RExtDigLong	32RFlexDigLong
7.125	-0.009308	0.12497	-0.2652	0.014648	-0.075684	0.14603	-0.73334	-0.007935	0.23529	0.13489	0.009308	-0.051727	-0.010681	-0.16449	-0.025024	-0.027618	0.003204	0.03067	-0.076447	-0.11551	0.024109	-0.03479	0.31097	-0.028229	0.033112	0.018616	-0.52902	0.011292	0.15671	-0.34866	-0.000763	-0.016174
7.126	-0.015564	0.15701	-0.037537	0.007935	-0.0177	0.13336	-0.83099	0.003357	0.072327	0.018768	-0.003815	-0.03418	-0.007172	-0.24994	-0.018311	-0.074005	0.032196	-0.017548	-0.12741	-0.008392	0.024567	-0.060425	0.36346	-0.12283	0.010071	0.019989	-0.48904	0.005188	0.21774	-0.36072	0.004578	-0.006104
7.127	-0.016632	0.094452	0.10254	0.008545	-0.019989	0.052185	-0.69931	-0.004272	-0.26672	-0.17181	0.027618	-0.037384	-0.032654	-0.18509	-0.010071	-0.078888	0.028534	-0.10101	-0.063019	0.11612	-0.031891	-0.068054	0.3418	-0.10605	0.013275	-0.003204	-0.16464	-0.003052	0.052185	-0.007629	-0.002747	0
7.128	-0.020142	0.11017	0.13184	0.000305	-0.11673	-0.010986	-0.616	0.019531	-0.57022	-0.22705	0.063171	-0.036316	-0.059052	-0.066833	0.000916	0.022125	0.002594	-0.07431	0.070953	0.008392	-0.066681	-0.051727	0.37201	-0.12497	0.023651	-0.009918	-0.33905	-0.000763	-0.048981	0.14694	-0.00351	-0.012665
7.129	-0.006714	0.059052	0.21179	0.005035	-0.14618	0.083923	-0.54764	0.022583	-0.43549	-0.1799	0.082092	-0.039825	-0.040741	-0.098114	0.007019	0.045624	-0.024261	-0.018311	0.39429	-0.10101	-0.075531	-0.036926	0.38147	-0.11734	0.023499	-0.002899	-1.2694	-0.005035	-0.032349	0.16144	0.001984	-0.014343
7.13	0.0354	0.011444	0.098419	-0.006409	-0.014191	-0.045776	-0.62759	-0.020447	-0.089417	-0.15869	0.041809	-0.034332	0.01358	-0.10605	0.024567	0.046539	-0.018921	-0.092621	0.39963	-0.11795	-0.094299	-0.089417	0.36652	-0.12268	0.0177	-0.00946	-0.54077	-0.003357	-0.18936	0.23636	-0.003967	-0.00946
7.131	0.045013	-0.071869	-0.02121	-0.024109	0.14313	-0.21835	-0.57648	-0.03479	0.059357	-0.073547	-0.050812	-0.046082	0.037231	-0.048828	0.024414	0.037384	-0.013123	-0.11978	0.16342	-0.12619	-0.10284	-0.053101	0.29999	-0.077667	0.036621	0.004578	0.42893	-0.002136	-0.11383	0.20203	-0.002594	0.003662
7.132	0.021515	-0.033264	0.000305	-0.013275	0.1297	-0.31754	-0.48218	-0.034027	0.15503	0.034637	-0.068512	-0.059052	0.027618	0.003204	0.029755	0.001984	-0.090027	-0.19043	0.11826	-0.017395	-0.03067	0.024872	0.22797	-0.019073	0.035095	0.015411	0.9465	-0.000153	0.033569	0.21423	-0.00351	0.001373
7.133	0.014496	0.059662	0.12497	0.019836	0.048523	-0.092926	-0.40543	-0.011292	0.14557	0.076141	-0.022278	-0.062103	0.017853	0.044098	0.014496	-0.000916	-0.089417	-0.16327	-0.20538	0.18875	-0.041962	0.023346	0.28183	-0.034637	0.016632	0.00824	0.58136	-0.006256	-0.053253	0.17029	-0.001526	0.001526
7.134	0.002747	0.13107	0.14206	0.008698	-0.003052	0.15976	-0.40695	0.00412	0.1059	0.026398	-0.014801	-0.060577	0.01236	0.02533	-0.017242	-0.019989	-0.096283	-0.12619	-0.16159	0.15488	-0.077972	0.11246	0.27374	-0.045624	0.024261	-0.002594	0.3006	-0.003357	-0.036011	0.20309	-0.003662	-0.004578
7.135	0.003357	0.12756	0.014191	0.002289	-0.034332	0.37018	-0.43076	0.002441	0.065918	0.006104	-0.015259	-0.065002	0.015411	-0.009918	-0.045013	0.001984	-0.056763	-0.1416	-0.054169	0.066681	-0.049744	0.13001	0.29388	-0.062103	0.021515	-0.012665	-0.14191	-0.011292	0.011444	0.19501	0.00061	-0.013733
7.136	0.018158	0.13321	-0.022583	0.001373	-0.029297	0.43076	-0.44418	0.001831	0.041351	-0.042419	-0.017853	-0.063019	0.05661	-0.014496	-0.04303	-0.003357	-0.019684	-0.19302	-0.081482	0.012054	0.029297	0.10696	0.27924	-0.009003	0.019226	-0.012512	-0.64194	-0.002594	0.078583	0.11368	-0.003204	-0.018158
7.137	0.016632	0.14969	-0.17273	-0.011597	-0.039978	0.37766	-0.49271	0.003204	0.059814	-0.18845	-0.004578	-0.10864	0.070343	0.008545	-0.025024	-0.020447	0.014343	-0.21072	0.024872	0.067444	0.061188	0.13565	0.28442	-0.005798	0.010681	-0.011902	-0.52307	-0.000763	0.15762	0.070038	-0.00061	-0.014954
7.138	0.002289	0.22018	-0.21606	-0.011902	-0.093231	0.35828	-0.47775	0.016937	0.13916	-0.13489	0.001373	0.098877	0.030212	-0.062561	0.017853	-0.023804	0.04715	-0.22354	0.14404	0.095062	0.072784	0.098877	0.30075	-0.027771	0.003815	-0.002747	0.002747	-0.000458	0.051575	0.084534	-0.002289	-0.013428
7.139	0.002136	0.30228	-0.27557	0.003662	-0.051117	0.29388	-0.49347	0.020294	0.18097	-0.024567	-0.000916	-0.054932	-0.12161	-0.13107	0.036621	-0.035706	0.071259	-0.17425	0.12039	0.13489	0.050659	0.075531	0.29236	-0.031586	0.010529	-0.011597	0.13702	-0.005341	0.025482	0.039063	-0.001831	-0.012054
7.14	-0.003662	0.25482	-0.33493	0.024414	-0.081787	0.1593	-0.52322	0.007019	0.19516	0.00946	0.008087	-0.09964	-0.24948	-0.28824	0.014191	0.005798	0.11414	-0.27161	-0.037537	0.098419	0.078278	-0.032959	0.29999	-0.03891	-0.002289	-0.011597	-0.014038	0.001831	0.057983	0.010681	-0.000916	-0.019531
7.141	-0.016479	0.22049	-0.21759	0.033264	-0.087891	-0.20111	-0.46722	0.00351	0.20721	0.080719	0.005188	-0.05188	-0.1355	-0.34134	0.006714	0.00351	0.12344	-0.25192	-0.015564	0.030823	0.10529	-0.12665	0.28931	-0.046997	0.001831	0.00351	-0.33386	-0.001526	-0.006256	-0.10391	-0.002441	-0.015259
7.142	-0.014648	0.15106	-0.019989	-0.010529	-0.023193	-0.69458	-0.35477	0.011749	0.20248	0.19363	-0.011139	-0.057983	0.20279	0.2298	-0.001831	-0.004883	0.091095	-0.26184	0.085602	0.089417	0.055237	-0.11581	0.3212	-0.078278	-0.005188	-0.00824	-0.007629	-0.001831	-0.12711	-0.091705	-0.001221	-0.017548
7.143	0.006409	0.0737	0.13611	-0.033722	0.065002	-0.54001	-0.25009	0.019836	0.040588	0.11841	-0.023651	-0.082855	0.13977	0.26032	0.052032	0.014496	0.027466	-0.23209	-0.041046	0.03067	0.013428	-0.035248	0.30548	-0.096436	-0.021362	-0.010223	0.32623	0.001068	-0.20523	-0.1088	0.002594	-0.01709
7.144	0.010071	0.071411	0.17868	-0.006561	0.12054	-0.25681	-0.15533	0.010223	-0.32089	0.077515	-0.034332	-0.067444	0.50919	0.013428	0.014801	0.10223	0.018311	-0.17334	-0.002136	-0.018158	-0.035553	-0.009003	0.26413	-0.1416	-0.006561	-0.003967	0.14343	-0.009155	-0.168	0.003815	0	-0.014801
7.145	0.001373	0.10864	0.06958	0.024719	0.045319	-0.1236	-0.13809	0.007629	-0.33218	-0.00885	-0.055847	-0.03006	-0.024261	0.023193	-0.011292	0.037689	0.002747	-0.17731	-0.050812	-0.055237	-0.054626	0.014496	0.28717	-0.13977	-0.000763	-0.002441	0.01297	-0.006256	-0.00885	0.036316	0.000305	-0.003815
7.146	0.002136	0.007019	-0.005493	0.013733	-0.11231	-0.063629	-0.17014	0.021057	-0.1767	-0.09491	-0.027313	-0.026855	-0.19165	-0.093994	-0.075073	0.037384	-0.038147	-0.037231	-0.085602	-0.1149	-0.059967	-0.003052	0.28351	-0.11856	-0.005493	0.007477	0.093079	0.002289	0.092468	0.022583	-0.00061	0.000916
7.147	0.011292	0.036469	0.02594	0.023346	-0.074158	-0.087433	-0.27145	0.00885	0.051117	-0.14481	0.015259	-0.0383	0.13107	-0.16022	-0.066223	-0.053711	-0.072784	0.09201	0.14053	-0.13107	-0.054779	-0.046387	0.29541	-0.1181	-0.001068	-0.001221	0.20096	-0.003815	-0.004578	0.019226	0.001221	0.000458
7.148	0.022278	0.043945	0.062103	-0.018921	0.032043	0.10254	-0.43625	0.002594	0.046692	-0.078583	0.019073	-0.038147	0.008545	0.091705	0.009003	-0.075073	-0.077057	0.13809	0.17868	-0.05722	-0.050354	-0.06546	0.28488	-0.10162	0.00412	-0.014954	0.13153	0.001526	-0.090942	0.055847	0	-0.011292
7.149	0.010071	0.055695	0.03006	-0.006104	0.079956	0.31632	-0.45258	-0.021667	0.018005	-0.096588	-0.002136	-0.046387	-0.16419	0.17288	0.036621	-0.037842	-0.084381	0.11322	0.076904	-0.046844	-0.056152	-0.053711	0.25726	-0.16312	0.000458	-0.01709	0.098724	-0.007019	-0.13412	0.11749	-0.001831	-0.011139
7.15	-0.000153	0.077972	0.12604	0.010223	0.030212	0.31906	-0.41611	-0.006866	0.11017	-0.10681	-0.036011	-0.045624	0.025024	0.001373	0.012817	-0.035095	-0.078735	0.11566	-0.053253	-0.062103	-0.07309	-0.032349	0.26916	-0.10056	0.007935	-0.016937	0.10315	-0.003204	-0.10681	0.083466	-0.002441	-0.015564
7.151	-0.023499	0.070038	0.14603	0.006256	-0.033875	0.31372	-0.26032	0.008087	0.15167	-0.072174	0.015259	-0.036163	0.17929	0.039063	0.027313	-0.031433	-0.053406	0.10193	-0.035248	-0.18249	-0.080719	-0.050659	0.24963	-0.10376	-0.008545	-0.012054	0.079041	-0.002747	-0.084686	0.038605	-0.006256	-0.007935
7.152	-0.026398	0.077057	0.25436	0.001221	-0.035095	0.36453	-0.13886	0.017395	0.073547	-0.033875	0.009155	-0.03952	0.13199	0.2533	-0.005341	-0.014038	-0.047913	0.041809	0.05127	-0.095978	-0.075073	-0.008545	0.22476	-0.067139	0.003967	-0.005493	0.016022	-0.001831	-0.075531	0.034332	-0.001831	-0.009766
7.153	-0.027313	0.088806	0.26382	0.000305	0.017395	0.16571	-0.12283	0.031738	-0.036316	-0.02655	-0.023193	-0.037079	-0.076447	0.24689	-0.062561	-0.002441	-0.009766	0.046997	0.12299	0.041046	-0.057373	0.033112	0.26749	-0.028534	0.004425	-0.01358	-0.11902	0.002747	-0.041199	0.01236	0.000763	-0.017395
7.154	-0.024109	0.13657	0.16007	0.002289	0.021973	-0.27832	-0.22583	0.022278	-0.15671	0.015869	0.001984	-0.035248	-0.2179	0.045319	-0.091248	-0.006256	0.017548	0.05661	0.022583	0.1767	-0.056458	-0.027771	0.22873	-0.036621	-0.00473	-0.006409	-0.067749	-0.010376	-0.03006	-0.014801	-0.000153	-0.00885
7.155	-0.025482	0.27268	0.056915	0.00946	0.032501	-0.47882	-0.27512	-0.008698	-0.17441	-0.016479	-0.025635	-0.026093	-0.23056	-0.02594	-0.065155	-0.003357	-0.005188	0.039978	-0.23697	0.24811	-0.049438	-0.061035	0.19134	-0.010376	0.002899	-0.00473	-0.06073	0.001373	-0.030823	-0.050354	0.000458	-0.00885
7.156	-0.030365	0.25696	-0.056152	0.011139	-0.002289	-0.52582	-0.24155	-0.023956	-0.10147	-0.045471	0.00351	-0.027008	0.040283	-0.032806	-0.018311	-0.011292	-0.072174	0.007172	-0.16724	0.24796	-0.041809	-0.042114	0.15488	-0.032501	0.014954	-0.009308	-0.086212	-0.002747	-0.036316	-0.047913	-0.00412	-0.01236
7.157	-0.033569	0.18387	0.15945	0.015717	-0.051117	-0.25665	-0.22171	-0.012817	-0.095367	-0.072174	-0.011292	-0.032043	-0.22171	0.10437	0.037689	-0.046844	-0.084534	0.011749	-0.06485	0.21255	-0.053558	-0.047913	0.15045	-0.055695	0.005035	-0.009155	-0.046844	0.001831	-0.085907	-0.019073	0.000305	-0.017548
7.158	-0.028381	-0.002594	0.096283	0.018616	-0.091553	-0.057831	-0.33524	-0.005798	0.011597	-0.061493	-0.023804	-0.03067	-0.047607	0.15182	0.006104	-0.9465	-0.072174	0.036469	-0.10956	0.10376	-0.020142	-0.024109	0.12589	-0.037842	0.001221	-0.00946	0.19424	-0.001984	-0.12207	-0.00351	-0.001373	-0.010834
7.159	-0.018005	-0.10666	-0.036316	-0.002136	-0.14374	0.010376	-0.34759	-0.007477	0.13687	-0.07309	-0.00885	-0.024109	0.054169	0.047913	0.021057	0.66284	-0.063629	0.02533	0.024872	-0.000305	-0.020142	0.094147	0.12207	-0.059204	-0.005951	-0.009308	0.52185	-0.001068	-0.07843	-0.066833	0	-0.008545
7.16	-0.00412	-0.14206	-0.031433	-0.014954	-0.081177	0.11917	-0.14908	-0.015717	0.13825	-0.11734	0.009613	0.059814	-0.064545	-0.030823	0.014038	0.22003	-0.034943	0.024109	0.005035	-0.081024	-0.000305	0.29068	0.10956	-0.006866	0.00473	-0.007935	0.54184	0.001526	-0.016022	-0.087891	0.003967	-0.005188
7.161	0.010071	-0.14328	-0.1741	-0.004272	0.036316	0.20737	-0.005798	-0.002136	0.13428	-0.1944	0.031128	-0.023041	-0.18387	-0.036621	0.023346	-0.068359	-0.005798	0.036163	0.065002	-0.055847	0.032806	0.20233	0.091095	-0.042572	-0.005798	0.003815	0.097504	-0.005035	-0.10254	-0.081635	-0.005035	-0.001373
7.162	0.017853	-0.23392	-0.15762	0.007019	0.15839	0.1976	-0.033417	-0.003204	0.1532	-0.26627	0.007629	-0.0737	-0.16922	0.012207	0.050812	-0.14465	0.01297	0.023804	0.1088	-0.086975	0.019531	0.080109	0.080109	-0.001678	0.027161	-0.007629	-0.27893	-0.004425	-0.019989	-0.052643	0.000458	-0.000916
7.163	0.016479	-0.31021	-0.15915	0.010071	0.070648	0.20371	-0.079193	-0.007019	0.10696	-0.29312	0.006104	-0.013885	-0.069733	0.031281	0.061798	0.38086	0.038452	0.081787	0.10727	-0.11475	0.004883	0.072327	0.09079	0.066986	0.007477	-0.009766	-0.47623	-0.000916	0.023956	-0.049896	-0.000916	-0.002441
7.164	0.011597	-0.41229	-0.12054	0.001526	-0.010376	0.29694	-0.1535	-0.013885	0.097198	-0.26733	-0.004272	0.028381	-0.11536	0.059662	0.063934	-0.025024	0.11124	0.10056	-0.060883	-0.032501	-0.023499	0.070038	0.11383	0.029144	-0.004883	-0.005951	-0.29465	-0.005798	0.036316	-0.018311	0.007477	-0.003052
